<?xml version="1.0" encoding="UTF-8"?>
<svg id="Layer_2" data-name="Layer 2" xmlns="http://www.w3.org/2000/svg" viewBox="0 0 114.6 20.23">
  <defs>
    <style>
      .cls-1 {
        fill: #fff;
        stroke: #fff;
        stroke-miterlimit: 10;
      }
    </style>
  </defs>
  <g id="Layer_1-2" data-name="Layer 1">
    <g>
      <path class="cls-1" d="m73.82,2.49c0,5.6.01,11.17,0,16.77-.03.29-.22.46-.5.45-.49-.02-.46-.44-.45-.83,0-5.9,0-11.81,0-17.71,0-.26.01-.51.32-.61.32-.1.48.1.65.32,4.23,5.56,8.24,11.32,12.59,16.77,0-5.41,0-10.83,0-16.24,0-.81.08-.89.88-.89,5.64,0,11.27,0,16.91,0,2.65,0,4.98.84,6.92,2.67.34.32.4.57.18.82-.21.24-.49.21-.84-.11-1.77-1.66-3.87-2.4-6.28-2.39-5.61.02-11.2,0-16.82,0,0,5.87.02,11.76,0,17.62-.08.2-.18.48-.34.53-.16.05-.47-.07-.59-.22-4.25-5.62-8.35-11.33-12.61-16.94Z"/>
      <path class="cls-1" d="m48.56,17.99c2.44-5.72,4.8-11.29,7.22-16.98.12-.28.27-.53.6-.45.15.03.32.22.37.38.05.13-.03.32-.1.47-2.48,5.84-4.97,11.67-7.45,17.5-.05.13-.08.28-.17.38-.15.16-.34.39-.51.38-.17,0-.41-.22-.5-.4-2.58-5.93-5.07-11.9-7.62-17.84-.16-.3-.21-.73.18-.86.29-.1.52.03.64.32,2.47,5.7,4.84,11.42,7.33,17.11Z"/>
      <path class="cls-1" d="m104.53,18.78c4.72-.04,8.51-3.82,8.61-8.59.01-.33.16-.55.5-.54.35,0,.46.24.46.57-.02,7.99-9.56,12.46-15.68,7.31-3.97-3.1-4.71-9.17-1.61-13.14.31-.41.57-.49.83-.3.26.2.24.48-.05.88-1.84,2.53-2.23,5.31-1.13,8.2,1.26,3.5,4.39,5.47,8.07,5.61Z"/>
      <path class="cls-1" d="m3.91,2.43c-.76.7-1.54,1.43-2.33,2.16-.09.09-.18.23-.28.24-.21.03-.48.06-.64-.04-.24-.15-.18-.43-.01-.63C1.72,3.01,2.85,1.91,3.97.8c.14-.14.41-.26.6-.23.29.05.35.34.35.63,0,5.96,0,11.91,0,17.87,0,.43-.17.63-.5.62-.4,0-.47-.28-.48-.6-.02-5.55.02-11.11-.01-16.66Z"/>
      <path class="cls-1" d="m63.16,1.34c-.03-.35.05-.82.49-.81.49-.01.52.52.5.89-.04,5.96.08,11.96-.04,17.9-.09.16-.29.36-.43.35-.17,0-.36-.19-.49-.35-.07-.09-.03-.27-.03-.41,0-2.93,0-14.65,0-17.58Z"/>
      <path class="cls-1" d="m32.94,10.07c0-2.94,0-5.89,0-8.83,0-.14,0-.31.07-.4.11-.14.29-.3.44-.29.15,0,.37.16.42.3.08.21.07.46.07.7,0,5.82,0,11.64.01,17.46,0,.44-.17.68-.49.69-.35,0-.52-.23-.52-.7,0-2.97,0-5.94,0-8.92Z"/>
      <path class="cls-1" d="m16.8,10.11c-.02,3.04.04,6.12-.02,9.16-.1.17-.28.39-.43.39-.16,0-.37-.18-.48-.34-.08-.1-.04-.3-.04-.45,0-5.82,0-11.63,0-17.45,0-.19-.03-.42.06-.57.09-.15.31-.31.46-.31.15,0,.33.21.42.36.08,3.04,0,6.14.03,9.2Z"/>
      <path class="cls-1" d="m106.41,9.63c1.14,0,2.29,0,3.43,0,.14,0,.31-.03.41.04.39.31.48.55.03.87-.11.08-.3.06-.45.06-2.36,0-4.71,0-7.07,0-.32-.03-.6-.13-.57-.51.02-.35.28-.46.59-.46,1.21,0,2.43,0,3.64,0Z"/>
      <path class="cls-1" d="m23.5,19.71c-1.1,0-2.2,0-3.3,0-.17,0-.37-.02-.51-.11-.29-.18-.22-.65.11-.77.16-.06.35-.07.53-.07,2.12,0,4.23,0,6.35,0,.37-.02.85.04.83.52,0,.34-.25.44-.54.44-1.16,0-2.31,0-3.47,0,0,0,0,0,0,0Z"/>
    </g>
  </g>
</svg>